<mxfile host="drawio-plugin" modified="2024-02-02T08:10:41.714Z" agent="5.0 (Windows NT 10.0; Win64; x64) AppleWebKit/537.36 (KHTML, like Gecko) Chrome/111.0.0.0 Safari/537.36" etag="nkkQoOxbsYtH4bpgWAj5" version="20.5.3" type="embed"><diagram id="EFVSTfl0GjTR_tD-mmBZ" name="Page-1"><mxGraphModel dx="736" dy="556" grid="1" gridSize="10" guides="1" tooltips="1" connect="1" arrows="1" fold="1" page="1" pageScale="1" pageWidth="827" pageHeight="1169" background="#F4F1DE" math="0" shadow="0"><root><mxCell id="0"/><mxCell id="1" parent="0"/><mxCell id="tfwAcGL6Q0d1bcxJ9b4Z-1" style="edgeStyle=orthogonalEdgeStyle;rounded=1;orthogonalLoop=1;jettySize=auto;html=1;exitX=0.5;exitY=1;exitDx=0;exitDy=0;labelBackgroundColor=#F4F1DE;strokeColor=#E07A5F;fontColor=#393C56;" parent="1" source="tfwAcGL6Q0d1bcxJ9b4Z-3" target="tfwAcGL6Q0d1bcxJ9b4Z-20" edge="1"><mxGeometry relative="1" as="geometry"><Array as="points"><mxPoint x="170" y="510"/><mxPoint x="170" y="510"/></Array><mxPoint x="170" y="440" as="sourcePoint"/></mxGeometry></mxCell><mxCell id="tfwAcGL6Q0d1bcxJ9b4Z-2" value="start event" style="edgeLabel;html=1;align=center;verticalAlign=middle;resizable=0;points=[];rounded=1;labelBackgroundColor=#F4F1DE;fontColor=#393C56;" parent="tfwAcGL6Q0d1bcxJ9b4Z-1" vertex="1" connectable="0"><mxGeometry x="0.1709" relative="1" as="geometry"><mxPoint y="-21.67" as="offset"/></mxGeometry></mxCell><mxCell id="tfwAcGL6Q0d1bcxJ9b4Z-3" value="&lt;font color=&quot;#000000&quot;&gt;api match&lt;br&gt;match service&lt;br&gt;&lt;/font&gt;" style="ellipse;whiteSpace=wrap;html=1;fillColor=#F2CC8F;strokeColor=#E07A5F;rounded=1;fontColor=#393C56;" parent="1" vertex="1"><mxGeometry x="110" y="310" width="120" height="80" as="geometry"/></mxCell><mxCell id="tfwAcGL6Q0d1bcxJ9b4Z-4" style="edgeStyle=orthogonalEdgeStyle;rounded=1;orthogonalLoop=1;jettySize=auto;html=1;labelBackgroundColor=#F4F1DE;strokeColor=#E07A5F;fontColor=#393C56;" parent="1" source="tfwAcGL6Q0d1bcxJ9b4Z-5" target="tfwAcGL6Q0d1bcxJ9b4Z-20" edge="1"><mxGeometry relative="1" as="geometry"><Array as="points"><mxPoint x="410" y="320"/><mxPoint x="410" y="390"/><mxPoint x="550" y="390"/></Array></mxGeometry></mxCell><mxCell id="tfwAcGL6Q0d1bcxJ9b4Z-5" value="&lt;font color=&quot;#000000&quot;&gt;Game Service&lt;/font&gt;" style="rounded=1;whiteSpace=wrap;html=1;fillColor=#F2CC8F;strokeColor=#E07A5F;fontColor=#393C56;" parent="1" vertex="1"><mxGeometry x="280" y="290" width="120" height="60" as="geometry"/></mxCell><mxCell id="tfwAcGL6Q0d1bcxJ9b4Z-14" value="&lt;h1&gt;&lt;span&gt;&lt;font color=&quot;#000000&quot; style=&quot;font-size: 8px&quot;&gt;Intelligence Game&lt;/font&gt;&lt;/span&gt;&lt;/h1&gt;" style="text;html=1;strokeColor=none;fillColor=none;spacing=5;spacingTop=-20;whiteSpace=wrap;overflow=hidden;rounded=1;fontColor=#393C56;" parent="1" vertex="1"><mxGeometry x="298" y="278" width="84" height="40" as="geometry"/></mxCell><mxCell id="tfwAcGL6Q0d1bcxJ9b4Z-15" value="Scores events ( game score, match)" style="text;html=1;align=center;verticalAlign=middle;resizable=0;points=[];autosize=1;rounded=1;fontColor=#393C56;" parent="1" vertex="1"><mxGeometry x="420" y="410" width="220" height="30" as="geometry"/></mxCell><mxCell id="tfwAcGL6Q0d1bcxJ9b4Z-16" style="edgeStyle=orthogonalEdgeStyle;rounded=1;orthogonalLoop=1;jettySize=auto;html=1;labelBackgroundColor=#F4F1DE;strokeColor=#E07A5F;fontColor=#393C56;" parent="1" source="tfwAcGL6Q0d1bcxJ9b4Z-20" target="tfwAcGL6Q0d1bcxJ9b4Z-5" edge="1"><mxGeometry relative="1" as="geometry"><Array as="points"><mxPoint x="340" y="480"/><mxPoint x="340" y="480"/></Array></mxGeometry></mxCell><mxCell id="tfwAcGL6Q0d1bcxJ9b4Z-17" value="Start Game" style="edgeLabel;html=1;align=center;verticalAlign=middle;resizable=0;points=[];rounded=1;labelBackgroundColor=#F4F1DE;fontColor=#393C56;" parent="tfwAcGL6Q0d1bcxJ9b4Z-16" vertex="1" connectable="0"><mxGeometry x="0.1897" y="-2" relative="1" as="geometry"><mxPoint as="offset"/></mxGeometry></mxCell><mxCell id="tfwAcGL6Q0d1bcxJ9b4Z-18" style="edgeStyle=orthogonalEdgeStyle;rounded=1;orthogonalLoop=1;jettySize=auto;html=1;entryX=0.5;entryY=0;entryDx=0;entryDy=0;labelBackgroundColor=#F4F1DE;strokeColor=#E07A5F;fontColor=#393C56;" parent="1" source="tfwAcGL6Q0d1bcxJ9b4Z-20" target="tfwAcGL6Q0d1bcxJ9b4Z-3" edge="1"><mxGeometry relative="1" as="geometry"><Array as="points"><mxPoint x="660" y="200"/><mxPoint x="170" y="200"/></Array><mxPoint x="390" y="260" as="targetPoint"/></mxGeometry></mxCell><mxCell id="tfwAcGL6Q0d1bcxJ9b4Z-19" value="Real Time Score event (n)" style="edgeLabel;html=1;align=center;verticalAlign=middle;resizable=0;points=[];rounded=1;labelBackgroundColor=#F4F1DE;fontColor=#393C56;" parent="tfwAcGL6Q0d1bcxJ9b4Z-18" vertex="1" connectable="0"><mxGeometry x="0.0721" y="1" relative="1" as="geometry"><mxPoint x="-27" y="19" as="offset"/></mxGeometry></mxCell><mxCell id="tfwAcGL6Q0d1bcxJ9b4Z-20" value="" style="line;strokeWidth=4;html=1;perimeter=backbonePerimeter;points=[];outlineConnect=0;rounded=1;labelBackgroundColor=#F4F1DE;fillColor=#F2CC8F;strokeColor=#E07A5F;fontColor=#393C56;" parent="1" vertex="1"><mxGeometry x="100" y="510" width="610" height="30" as="geometry"/></mxCell><mxCell id="qZfYgaK1famNU32p-3GL-3" value="" style="shape=cylinder;whiteSpace=wrap;html=1;boundedLbl=1;backgroundOutline=1;rotation=90;fillColor=#F2CC8F;strokeColor=#E07A5F;rounded=1;fontColor=#393C56;" parent="1" vertex="1"><mxGeometry x="371" y="221" width="62" height="660" as="geometry"/></mxCell><mxCell id="JmL4vN_5mk8Es3TvauVB-3" value="broker kafka" style="edgeLabel;html=1;align=center;verticalAlign=middle;resizable=0;points=[];rounded=1;labelBackgroundColor=#F4F1DE;fontColor=#393C56;" parent="1" vertex="1" connectable="0"><mxGeometry x="371" y="551" as="geometry"/></mxCell><mxCell id="JmL4vN_5mk8Es3TvauVB-4" value="Text" style="text;html=1;align=center;verticalAlign=middle;resizable=0;points=[];autosize=1;rounded=1;fontColor=#393C56;" parent="1" vertex="1"><mxGeometry x="810" y="278" width="40" height="20" as="geometry"/></mxCell></root></mxGraphModel></diagram></mxfile>